<svg id="svg" version="1.1" xmlns="http://www.w3.org/2000/svg" xmlns:xlink="http://www.w3.org/1999/xlink" width="400" height="400" viewBox="0, 0, 400,400"><g id="svgg"><path id="path0" d="M241.200 231.593 C 240.250 232.330,240.244 232.357,241.087 232.141 C 241.575 232.016,242.182 231.663,242.436 231.357 C 243.106 230.549,242.364 230.691,241.200 231.593 M228.577 241.467 C 220.662 246.379,213.042 249.894,204.537 252.556 C 199.714 254.066,199.535 254.243,200.941 256.088 C 202.134 257.654,208.400 268.353,208.400 268.824 C 208.400 269.660,209.364 269.595,210.333 268.694 C 212.422 266.748,215.273 264.800,216.031 264.800 C 217.170 264.800,216.964 265.731,215.653 266.505 C 213.658 267.683,210.400 270.845,210.400 271.602 C 210.400 272.002,211.091 273.561,211.935 275.065 C 215.718 281.804,218.431 286.830,218.776 287.737 C 219.233 288.939,220.969 289.312,226.200 289.330 C 230.596 289.346,228.089 289.906,222.600 290.135 L 219.400 290.268 219.306 292.034 C 218.878 300.042,218.025 307.717,215.983 321.932 C 214.676 331.025,213.537 338.585,213.451 338.732 C 213.364 338.879,213.446 339.402,213.632 339.893 C 213.992 340.847,215.200 340.760,215.200 339.780 C 215.200 339.486,215.540 339.007,215.955 338.716 C 216.371 338.425,218.475 336.570,220.632 334.594 C 226.116 329.567,227.474 328.354,233.600 323.003 C 239.286 318.037,244.236 313.677,244.966 312.992 C 245.205 312.768,246.572 311.598,248.005 310.392 C 254.506 304.920,259.203 300.608,259.082 300.221 C 258.869 299.540,254.859 296.948,251.300 295.191 C 248.126 293.624,247.557 293.121,248.382 292.611 C 248.955 292.257,253.492 294.436,257.004 296.752 C 260.876 299.304,260.434 299.354,264.572 295.900 C 268.567 292.566,268.459 293.119,266.270 287.200 C 265.497 285.110,263.635 279.577,262.132 274.905 C 260.629 270.233,259.310 266.411,259.200 266.411 C 259.090 266.411,257.856 267.384,256.458 268.572 C 253.510 271.079,249.744 273.200,248.244 273.200 C 246.636 273.200,247.004 272.542,248.991 271.865 C 251.373 271.053,254.563 268.890,256.919 266.489 L 258.839 264.533 256.384 256.767 C 253.581 247.901,253.580 247.899,250.494 247.220 C 246.303 246.297,242.084 244.388,237.695 241.429 L 233.354 238.502 228.577 241.467 " stroke="none" fill="#eefb1b" fill-rule="evenodd"></path><path id="path1" d="M253.400 63.020 C 230.881 66.358,210.108 79.781,198.435 98.536 C 197.088 100.701,195.713 102.744,195.379 103.078 C 195.046 103.411,194.416 104.385,193.979 105.242 C 193.005 107.150,192.751 107.163,190.692 105.400 C 187.463 102.637,187.461 102.679,190.440 111.211 C 198.102 133.160,205.387 155.802,206.158 160.064 C 206.422 161.523,206.414 161.533,203.418 163.536 C 201.766 164.642,200.340 165.423,200.250 165.273 C 200.159 165.123,199.903 164.370,199.681 163.600 C 199.458 162.830,198.709 160.400,198.017 158.200 C 197.325 156.000,195.675 150.420,194.352 145.800 C 190.333 131.770,179.618 100.260,178.473 99.102 C 175.321 95.918,150.128 95.914,147.700 99.097 C 146.947 100.085,147.075 107.266,148.045 118.455 C 149.234 132.164,149.251 144.502,148.091 151.238 C 144.030 174.816,130.781 205.152,110.922 236.349 C 108.628 239.952,106.836 243.116,106.938 243.382 C 107.156 243.952,115.235 247.972,119.107 249.438 C 142.476 258.287,170.357 260.635,194.357 255.776 C 197.121 255.216,199.657 254.535,199.992 254.261 C 200.326 253.988,202.220 253.266,204.200 252.656 C 212.772 250.018,221.131 246.152,229.180 241.105 L 233.360 238.484 237.180 241.103 C 241.658 244.174,244.790 245.679,249.085 246.825 C 250.798 247.283,252.740 247.894,253.400 248.183 C 254.891 248.838,263.595 249.781,265.192 249.462 C 265.839 249.332,266.477 249.400,266.608 249.613 C 268.047 251.942,291.638 248.286,304.037 243.814 C 325.623 236.027,335.715 213.323,335.156 173.800 C 335.050 166.312,335.132 164.987,335.914 161.600 C 337.495 154.752,336.794 141.872,334.594 137.360 C 333.959 136.057,333.600 134.631,333.600 133.411 C 333.600 122.953,328.380 107.365,321.312 96.718 C 304.710 71.711,279.420 59.162,253.400 63.020 M141.715 100.589 C 135.741 102.987,127.352 107.801,123.454 111.066 C 122.402 111.947,122.267 111.971,121.819 111.358 C 121.061 110.322,112.275 110.784,107.120 112.130 C 97.343 114.684,88.811 119.265,82.894 125.139 C 80.752 127.265,78.083 129.820,76.962 130.818 C 74.322 133.166,72.202 135.967,70.945 138.763 C 70.079 140.690,69.528 141.276,66.970 142.993 C 58.005 149.011,49.613 160.227,44.668 172.800 C 32.689 203.263,47.211 237.001,75.226 243.788 C 80.423 245.047,93.307 245.266,96.200 244.145 C 97.080 243.804,98.295 243.431,98.900 243.317 C 99.505 243.203,100.000 242.881,100.000 242.603 C 100.000 241.570,102.357 241.002,103.599 241.736 C 105.710 242.983,105.970 242.762,109.998 236.296 C 128.827 206.075,141.703 177.055,146.159 154.800 C 148.176 144.720,148.351 137.014,146.932 120.600 C 146.590 116.640,146.195 110.265,146.055 106.432 C 145.763 98.447,146.058 98.845,141.715 100.589 M242.436 231.357 C 242.182 231.663,241.575 232.016,241.087 232.141 C 240.244 232.357,240.250 232.330,241.200 231.593 C 242.364 230.691,243.106 230.549,242.436 231.357 " stroke="none" fill="#fbfbfb" fill-rule="evenodd"></path><path id="path2" d="M169.973 63.250 C 169.626 63.898,169.640 64.328,170.031 65.058 C 170.425 65.794,170.434 66.126,170.072 66.488 C 169.039 67.521,169.565 71.052,171.768 77.881 C 172.961 81.576,174.866 87.570,176.002 91.200 C 177.138 94.830,178.383 98.250,178.768 98.800 C 179.152 99.350,179.931 101.150,180.498 102.800 C 187.943 124.464,191.714 135.941,194.229 144.600 C 198.516 159.361,199.548 162.484,200.464 163.464 L 201.272 164.328 203.632 162.864 C 206.529 161.066,206.549 161.556,203.106 150.200 C 201.771 145.800,200.453 141.390,200.177 140.400 C 199.901 139.410,199.032 136.800,198.246 134.600 C 193.618 121.635,187.885 104.475,187.932 103.724 C 187.982 102.929,186.831 99.545,179.113 77.800 C 175.873 68.670,173.627 63.066,173.064 62.707 C 172.105 62.097,170.433 62.391,169.973 63.250 " stroke="none" fill="#735620" fill-rule="evenodd"></path><path id="path3" d="M165.194 67.655 C 146.372 80.347,144.039 87.119,146.946 120.600 C 149.437 149.279,145.942 166.211,130.958 198.040 C 123.830 213.182,107.229 242.384,105.742 242.396 C 105.490 242.398,104.686 243.345,103.955 244.500 C 103.224 245.655,102.530 246.690,102.412 246.800 C 102.294 246.910,101.498 248.080,100.644 249.400 C 99.334 251.422,90.479 264.153,89.515 265.400 C 89.345 265.620,86.650 269.220,83.527 273.400 C 80.403 277.580,77.651 281.198,77.411 281.441 C 77.171 281.684,75.901 283.304,74.588 285.041 C 73.274 286.778,72.091 288.290,71.958 288.400 C 70.825 289.335,67.602 293.459,67.612 293.962 C 67.620 294.389,68.036 294.138,68.872 293.200 C 69.559 292.430,71.579 290.246,73.361 288.346 C 75.142 286.446,76.960 284.383,77.400 283.762 C 77.840 283.140,79.194 281.455,80.409 280.016 C 81.624 278.577,83.240 276.590,83.999 275.600 C 84.758 274.610,85.491 273.710,85.627 273.600 C 85.837 273.431,89.511 268.500,91.439 265.800 C 91.753 265.360,93.249 263.270,94.762 261.157 C 99.627 254.363,106.800 243.694,106.800 243.252 C 106.800 243.017,108.665 239.893,110.945 236.312 C 130.781 205.153,144.040 174.784,148.089 151.238 C 149.265 144.404,149.243 132.492,148.030 118.310 C 145.627 90.211,148.983 81.143,166.123 69.431 C 169.436 67.167,170.487 65.927,169.733 65.173 C 169.538 64.978,167.554 66.063,165.194 67.655 M341.341 229.810 C 341.000 230.699,345.024 241.927,348.576 250.000 C 349.302 251.650,350.114 253.675,350.379 254.500 C 350.851 255.967,351.600 256.547,351.600 255.446 C 351.600 254.683,348.898 246.408,348.468 245.850 C 348.276 245.603,346.878 241.757,345.360 237.303 C 342.751 229.649,341.965 228.184,341.341 229.810 M265.467 249.467 C 265.320 249.613,265.200 250.069,265.200 250.479 C 265.200 257.387,256.017 269.471,248.934 271.884 C 246.997 272.544,246.653 273.200,248.244 273.200 C 249.652 273.200,253.485 271.109,255.976 268.984 C 257.094 268.029,258.532 266.876,259.170 266.421 C 261.938 264.451,265.194 258.282,266.154 253.191 C 266.832 249.597,266.599 248.334,265.467 249.467 M312.800 250.642 C 312.800 251.645,313.903 255.741,315.625 261.134 C 316.491 263.848,317.200 266.323,317.200 266.634 C 317.200 266.945,317.470 267.200,317.800 267.200 C 318.130 267.200,318.400 267.065,318.400 266.900 C 318.400 266.150,317.106 260.974,315.824 256.600 C 315.051 253.960,314.414 251.504,314.409 251.143 C 314.404 250.781,314.115 250.376,313.767 250.243 C 312.867 249.897,312.800 249.925,312.800 250.642 M109.601 266.300 C 109.603 272.231,110.647 283.238,112.002 291.600 C 112.543 294.942,112.424 287.171,111.802 278.600 C 111.483 274.200,111.217 268.935,111.211 266.900 C 111.201 263.470,111.142 263.200,110.400 263.200 C 109.669 263.200,109.600 263.466,109.601 266.300 M212.940 266.563 C 208.347 270.025,207.359 271.178,206.445 274.142 C 202.903 285.633,211.913 292.186,227.800 289.674 C 229.504 289.405,229.178 289.351,225.600 289.313 C 213.003 289.176,205.224 281.692,209.440 273.764 C 209.968 272.771,210.400 271.714,210.400 271.416 C 210.400 270.809,213.888 267.547,215.653 266.505 C 216.284 266.132,216.800 265.596,216.800 265.314 C 216.800 264.319,215.254 264.819,212.940 266.563 M196.000 269.842 C 196.000 270.195,196.896 273.276,197.991 276.689 C 199.086 280.102,200.096 283.503,200.235 284.247 C 200.458 285.436,202.024 286.376,201.991 285.300 C 201.970 284.649,200.426 279.194,200.070 278.519 C 199.862 278.123,199.182 276.000,198.558 273.800 C 197.934 271.600,197.238 269.668,197.012 269.506 C 196.352 269.035,196.000 269.152,196.000 269.842 M292.400 282.328 C 292.400 282.728,293.379 287.003,294.576 291.828 C 296.915 301.254,300.147 314.733,302.771 326.000 C 303.668 329.850,304.872 334.890,305.446 337.200 C 306.020 339.510,306.801 342.796,307.181 344.503 C 307.561 346.210,307.991 347.725,308.136 347.870 C 308.742 348.475,308.765 347.558,308.218 344.568 C 306.486 335.089,305.870 332.047,305.390 330.600 C 305.099 329.720,303.939 325.040,302.813 320.200 C 301.687 315.360,299.232 305.100,297.357 297.400 C 295.482 289.700,293.866 282.995,293.766 282.500 C 293.550 281.428,292.400 281.283,292.400 282.328 M248.267 292.667 C 247.677 293.256,248.096 293.687,250.145 294.593 C 258.356 298.224,266.813 306.992,266.796 311.857 C 266.776 317.606,253.687 326.400,245.151 326.400 C 244.035 326.400,243.600 326.569,243.600 327.003 C 243.600 327.686,245.745 327.569,251.224 326.587 C 264.082 324.284,271.654 314.859,267.488 306.344 C 266.187 303.686,262.299 299.290,260.949 298.951 C 260.409 298.816,258.601 297.805,256.932 296.704 C 252.918 294.057,248.796 292.137,248.267 292.667 M164.800 308.763 C 164.800 310.394,166.500 321.937,171.461 354.000 C 172.481 360.589,172.866 362.068,173.419 361.515 C 173.839 361.095,172.147 348.210,170.226 337.200 C 169.670 334.010,169.117 330.320,168.997 329.000 C 168.613 324.770,166.355 309.432,165.980 308.500 C 165.469 307.232,164.800 307.381,164.800 308.763 " stroke="none" fill="#8ed0ce" fill-rule="evenodd"></path><path id="path4" d="M199.780 163.300 C 199.901 163.685,200.096 164.300,200.213 164.667 C 200.377 165.179,200.536 165.224,200.898 164.862 C 201.259 164.501,201.159 164.183,200.464 163.496 C 199.744 162.783,199.604 162.743,199.780 163.300 " stroke="none" fill="#867c6f" fill-rule="evenodd"></path></g></svg>