<svg version="1.1" id="Layer_1" xmlns="http://www.w3.org/2000/svg" xmlns:xlink="http://www.w3.org/1999/xlink" x="0px" y="0px"
	 width="100%" viewBox="0 0 992 992" enable-background="new 0 0 992 992" xml:space="preserve">
<path fill="#000000" opacity="1.000000" stroke="none" 
	d="
M803.011658,711.128357 
	C791.058350,719.540894 779.722534,728.263733 767.119324,735.029968 
	C748.570984,744.988037 731.073120,756.864929 711.220459,764.472534 
	C702.852051,767.679260 694.627686,771.304199 686.755432,776.132385 
	C671.238770,785.648865 653.628296,790.239746 635.685181,793.373413 
	C611.047852,797.676208 586.232666,799.075439 561.285095,798.345276 
	C542.546631,797.796875 523.957214,795.527222 505.549774,792.075562 
	C486.331207,788.471802 467.263367,784.078735 448.841736,777.415588 
	C430.895508,770.924316 412.993042,764.223999 396.607422,754.220398 
	C392.268768,751.571594 389.764282,752.015625 385.839508,755.890320 
	C362.172546,779.255554 333.922913,794.734314 301.502930,802.264282 
	C282.448822,806.689880 263.152985,807.287109 243.636520,805.521423 
	C224.164642,803.759766 205.324173,799.795532 187.276932,792.309204 
	C176.349304,787.776184 165.991714,782.124023 156.801819,774.611938 
	C154.297180,772.564453 152.822128,773.117798 150.996002,775.128479 
	C142.068527,784.958374 133.428040,795.076416 124.073814,804.483765 
	C114.014206,814.600525 103.276398,824.043091 92.813934,833.757690 
	C92.629417,833.928955 92.186584,833.822083 91.578407,833.865356 
	C90.094803,832.080322 91.010017,830.574341 92.462685,829.359741 
	C102.287163,821.145325 108.103073,809.637817 116.465454,800.244812 
	C125.753166,789.812500 133.122787,777.950134 141.850616,767.119873 
	C143.879364,764.602478 143.882477,763.007446 141.741638,760.765625 
	C122.248238,740.352783 111.707001,715.598938 105.334450,688.401306 
	C100.215630,666.554504 99.637650,644.506470 100.951836,622.511780 
	C102.629326,594.437073 108.618088,567.021545 119.585884,540.928589 
	C126.627403,524.176514 135.231293,508.437347 147.171585,494.436157 
	C154.614426,485.708679 163.108200,479.120026 173.492981,474.712555 
	C175.955521,473.667450 177.378830,472.134705 178.243881,469.489380 
	C186.300964,444.851135 200.588760,424.165131 218.224823,405.381714 
	C234.115799,388.456848 251.722839,373.718018 270.944733,360.835052 
	C282.169098,353.312195 294.330597,347.460541 306.570496,341.832336 
	C309.173035,340.635651 310.436829,339.417694 310.865601,336.547241 
	C315.915619,302.738373 331.325592,272.823883 346.613892,242.931549 
	C350.288422,235.746933 354.250549,228.552475 359.579681,222.317337 
	C362.111084,219.355530 364.212616,216.257019 363.727325,212.034302 
	C363.514221,210.180145 364.574677,208.450150 366.239777,208.144287 
	C370.734863,207.318604 375.242157,208.017303 379.144257,210.346222 
	C382.485840,212.340591 381.578400,215.935211 380.920593,218.976807 
	C380.535614,220.756973 380.332581,222.125687 381.713593,223.522491 
	C388.133423,230.015701 391.937408,238.169846 396.127747,246.109818 
	C402.468475,258.124420 408.975708,270.053040 415.547668,281.943298 
	C423.095551,295.599152 430.896576,309.115875 438.364960,322.814453 
	C440.947021,327.550507 443.812683,331.119690 449.673828,331.988525 
	C453.875214,332.611359 457.924042,334.448822 461.953430,335.975311 
	C464.274200,336.854492 465.870575,336.687256 467.645386,334.705933 
	C487.349884,312.709137 510.961487,296.509552 538.291077,285.075958 
	C559.325134,276.276215 581.052246,270.656128 603.435669,267.856415 
	C641.960693,263.037750 678.293030,270.432373 712.248596,289.553131 
	C735.819458,302.826111 756.740051,319.312775 776.373108,337.930267 
	C795.789246,356.342010 812.383301,376.877777 826.786194,399.153625 
	C846.268860,429.286011 858.890015,462.178589 864.596802,497.817139 
	C867.194336,514.038574 867.837830,530.218384 867.207886,546.462280 
	C866.563293,563.086365 863.129089,579.296692 856.991394,594.850464 
	C854.147156,602.058105 854.769653,609.826599 853.451294,617.294800 
	C849.326782,640.659485 843.626892,663.339722 829.429077,683.009888 
	C821.899536,693.441528 812.461487,702.031311 803.011658,711.128357 
M469.080292,443.389069 
	C468.772308,442.995789 468.384338,442.642059 468.167725,442.203644 
	C454.185883,413.904510 438.221954,386.678650 423.194977,358.945618 
	C421.632141,356.061340 419.806580,354.010315 416.635590,353.524292 
	C413.039124,352.973022 409.404022,352.578247 405.771210,352.374756 
	C380.275269,350.946411 355.493256,354.803864 331.229553,362.516663 
	C322.178497,365.393738 320.493774,366.810760 320.375061,373.064819 
	C320.144806,385.196167 320.508209,397.323608 319.447235,409.456177 
	C318.580139,419.371796 319.238983,429.351227 318.581024,439.341339 
	C317.258453,459.422333 314.198792,479.162994 309.649536,498.696838 
	C301.880127,532.057495 288.314819,563.158508 272.369446,593.324158 
	C253.182556,629.622314 231.027878,664.087646 208.081924,698.075439 
	C197.773163,713.344971 187.258728,728.462463 176.097153,743.126770 
	C172.296158,748.120544 172.533905,748.752991 177.767258,752.527222 
	C185.224136,757.905029 193.305283,762.197327 201.782303,765.617065 
	C224.763000,774.887756 248.358856,779.975281 273.476929,777.886719 
	C287.756134,776.699463 301.759766,774.634521 315.573761,771.141724 
	C334.687866,766.308716 352.024597,757.072998 369.621460,748.556641 
	C372.462463,747.181702 375.682373,746.002991 377.832001,743.248413 
	C377.261719,742.555298 376.929352,741.930542 376.414368,741.558167 
	C366.280457,734.229797 357.479401,725.481567 349.116180,716.236389 
	C343.839203,710.402954 344.426880,700.904480 350.934418,698.430054 
	C355.931824,696.529724 361.154541,697.033203 365.918488,700.692444 
	C394.166168,722.389709 424.855347,739.689575 458.865479,750.595337 
	C479.523926,757.219727 500.666260,761.795898 522.204529,764.862122 
	C539.945068,767.387634 557.746399,768.513184 575.576782,769.655823 
	C586.568115,770.360229 597.467896,768.362549 608.454407,768.544861 
	C612.394226,768.610291 616.395447,767.985657 620.289917,767.256104 
	C638.344116,763.874084 656.423462,760.642578 674.385681,756.748108 
	C684.994324,754.447876 695.547668,751.457031 705.078003,746.855286 
	C718.293091,740.474243 730.490540,731.897949 742.829102,723.812073 
	C757.266541,714.350830 771.235962,704.221497 784.353149,692.937134 
	C798.130127,681.085327 809.329895,667.318115 816.807190,650.686523 
	C823.316528,636.207886 826.085693,620.650146 829.735413,605.340210 
	C832.761047,592.648132 834.350708,579.467346 841.817627,568.187195 
	C842.488708,567.173462 842.513977,565.658325 842.622375,564.357910 
	C843.385803,555.195618 842.296021,546.044983 841.409912,537.004822 
	C839.389771,516.394714 835.320068,496.167053 828.713074,476.407135 
	C820.767578,452.644226 810.653320,429.967682 796.168701,409.546661 
	C783.196899,391.258514 768.377014,374.556702 751.711426,359.326355 
	C735.813416,344.797455 719.049072,331.647247 700.616760,320.660706 
	C668.202515,301.340302 633.631714,293.568481 596.079956,301.503662 
	C564.523865,308.171875 535.253723,320.007751 508.826874,338.585663 
	C503.910736,342.041687 499.348358,346.000916 494.228760,350.038574 
	C496.471313,351.599731 497.916779,352.702484 499.452698,353.660156 
	C513.142090,362.195496 524.774536,373.070557 534.719482,385.653503 
	C537.767395,389.509888 541.837524,392.588287 543.735718,397.458893 
	C545.538086,402.083466 548.161499,406.345703 551.908447,409.765594 
	C553.550537,411.264282 554.889282,413.033600 555.148560,415.233582 
	C555.345093,416.901581 556.150818,419.184143 553.804138,419.996399 
	C551.936829,420.642822 549.529114,420.936768 548.312134,418.936615 
	C542.584778,409.523529 532.525757,405.395935 523.968140,399.869171 
	C506.410339,388.529724 488.073883,378.357452 469.080750,369.491119 
	C467.422058,368.716797 465.734039,368.005188 463.514069,367.023071 
	C465.067749,371.207062 521.374634,479.966064 522.235229,480.690704 
	C527.651001,466.434906 538.808044,456.724091 551.288452,449.759430 
	C557.855164,446.094971 564.319092,442.347900 572.184631,442.680359 
	C577.550049,442.907104 581.799500,446.498810 582.307190,451.095764 
	C582.887512,456.349945 579.834534,460.616364 574.754517,462.486603 
	C565.803406,465.782074 557.839050,470.852020 550.301086,476.655396 
	C543.395752,481.971680 538.867798,489.436676 532.972595,495.554596 
	C524.484680,504.363159 524.536194,515.080139 523.261292,525.712524 
	C522.928650,528.486023 523.805725,531.575623 519.802124,532.299438 
	C515.738342,533.033936 514.633789,530.258301 513.809509,527.212952 
	C512.517151,522.438477 510.999664,517.701416 510.101715,512.851501 
	C509.439911,509.277130 507.676331,508.066711 504.302673,508.347534 
	C495.884430,509.048218 487.392395,509.227051 479.056641,510.466797 
	C467.373474,512.204346 455.321716,510.117889 443.860413,514.109070 
	C442.237091,514.674316 439.616943,515.178345 438.869385,512.400574 
	C438.198700,509.908508 438.908966,507.905701 441.525024,506.701355 
	C443.622162,505.735931 446.069702,504.836182 447.467590,503.161133 
	C455.942871,493.005341 467.085419,489.580841 479.764801,489.655609 
	C483.697174,489.678833 487.629822,489.659271 492.700897,489.659271 
	C484.605804,473.788727 477.017731,458.912231 469.080292,443.389069 
M243.124771,616.706299 
	C244.932968,613.539490 246.703217,610.350281 248.555450,607.209412 
	C261.320831,585.562805 273.011810,563.293945 282.273590,539.979736 
	C298.603943,498.872284 306.618439,455.989197 306.694122,411.676056 
	C306.707153,404.045288 306.273956,396.419617 307.475494,388.767303 
	C308.229370,383.966064 307.615906,378.950134 307.615906,373.903076 
	C283.445648,378.694122 210.888748,446.696838 206.365265,468.371277 
	C214.765213,469.242035 223.160492,470.060425 231.440735,471.713043 
	C237.859375,472.994110 242.326706,477.552887 242.317871,482.869415 
	C242.309174,488.106171 238.216309,492.405121 231.614487,493.290802 
	C220.140839,494.830078 208.600357,495.869629 197.124313,497.393066 
	C184.175873,499.111969 173.919540,505.321503 165.892136,515.802368 
	C153.589935,531.864624 145.301453,549.843384 139.557953,569.042908 
	C132.926666,591.210144 128.824295,613.793457 129.268402,637.093567 
	C129.442749,646.240906 130.138199,655.285156 131.246841,664.360596 
	C134.400253,690.174988 142.109665,714.076660 158.632217,734.715027 
	C161.516449,738.317749 162.691498,738.620422 165.330582,734.791565 
	C174.173431,721.961853 183.150009,709.220093 192.297455,696.605652 
	C204.859146,679.282776 216.377869,661.280945 227.580444,643.072083 
	C232.797470,634.592163 237.694626,625.915466 243.124771,616.706299 
M373.862152,266.404144 
	C370.478058,258.803162 367.556152,251.016724 364.617065,241.628922 
	C347.872070,272.017822 332.875519,301.509003 324.512939,335.081757 
	C350.561371,327.238495 375.816650,322.706238 402.677856,323.677155 
	C392.675446,304.126617 382.106750,286.267090 373.862152,266.404144 
z"/>
</svg>